<?xml version="1.0" encoding="UTF-8"?> <svg xmlns="http://www.w3.org/2000/svg" viewBox="0 0 96 96"><style><![CDATA[.I{fill:none}.J{stroke-linejoin:round}.K{stroke-width:2.6}.L{stroke-linecap:round}.M{stroke-width:1.734}]]></style><path d="M46.8 96C28.08 96 12.9 80.83 12.9 62.12S28.08 28.24 46.8 28.24 80.67 43.4 80.67 62.12C80.66 80.83 65.5 96 46.8 96" fill="#9effd8"></path><path d="M48.97 87.26c-18.7 0-33.88-15.17-33.88-33.88S30.26 19.5 48.97 19.5s33.88 15.17 33.88 33.88-15.17 33.88-33.88 33.88" fill="#6be4c6"></path><linearGradient id="A" gradientUnits="userSpaceOnUse" x1="46.7" y1="6.731" x2="49.3" y2="6.731"><stop offset="0" stop-color="#002057"></stop><stop offset="1" stop-color="#4a71b4"></stop></linearGradient><path stroke="url(#A)" d="M48 12.16V1.3" class="I J K L"></path><linearGradient id="B" gradientUnits="userSpaceOnUse" x1="27.685" y1="14.179" x2="33.002" y2="14.179"><stop offset="0" stop-color="#002057"></stop><stop offset="1" stop-color="#4a71b4"></stop></linearGradient><path stroke="url(#B)" d="M31.7 16.53l-2.7-4.7" class="I J K L"></path><linearGradient id="C" gradientUnits="userSpaceOnUse" x1="9.061" y1="25.746" x2="21.071" y2="25.746"><stop offset="0" stop-color="#002057"></stop><stop offset="1" stop-color="#4a71b4"></stop></linearGradient><path stroke="url(#C)" d="M19.77 28.46l-9.4-5.43" class="I J K L"></path><linearGradient id="D" gradientUnits="userSpaceOnUse" x1="8.671" y1="44.76" x2="16.704" y2="44.76"><stop offset="0" stop-color="#002057"></stop><stop offset="1" stop-color="#4a71b4"></stop></linearGradient><path stroke="url(#D)" d="M15.4 44.76H9.97" class="I J K L"></path><linearGradient id="E" gradientUnits="userSpaceOnUse" x1="79.296" y1="44.76" x2="87.329" y2="44.76"><stop offset="0" stop-color="#002057"></stop><stop offset="1" stop-color="#4a71b4"></stop></linearGradient><path stroke="url(#E)" d="M80.6 44.76h5.43" class="I J K L"></path><linearGradient id="F" gradientUnits="userSpaceOnUse" x1="74.929" y1="25.746" x2="86.939" y2="25.746"><stop offset="0" stop-color="#002057"></stop><stop offset="1" stop-color="#4a71b4"></stop></linearGradient><path stroke="url(#F)" d="M76.23 28.46l9.4-5.43" class="I J K L"></path><linearGradient id="G" gradientUnits="userSpaceOnUse" x1="62.998" y1="14.179" x2="68.315" y2="14.179"><stop offset="0" stop-color="#002057"></stop><stop offset="1" stop-color="#4a71b4"></stop></linearGradient><path stroke="url(#G)" d="M64.3 16.53l2.7-4.7" class="I J K L"></path><path d="M75.16 61.06a27.07 27.07 0 0 0-6.33-17.43c-3.9 10.2-13.78 17.45-25.35 17.45-8.37 0-15.85 3.8-20.83 9.74C26.57 81 36.44 88.22 48 88.22c15 0 27.16-12.16 27.16-27.16z" fill="#f3faff"></path><path d="M68.83 43.63c-.73 1.9-1.66 3.68-2.77 5.35 2.32 3.46 3.67 7.6 3.67 12.08 0 12-9.73 21.73-21.73 21.73-10.07 0-18.53-6.85-21-16.13a27.19 27.19 0 0 0-4.35 4.16C26.57 81 36.44 88.22 48 88.22c15 0 27.16-12.16 27.16-27.16a27.05 27.05 0 0 0-6.33-17.43z" fill="#e1eff9"></path><g stroke="#1f3a93" class="I J L"><path d="M42.57 23.97h10.87v5.43H42.57zm6.8 9.16V29.4h-2.72v3.73m22.47 9.54l2.9-2.9-1.92-1.92-.97.96-.96.97-.97.97" stroke-width="2"></path><path d="M45.78 63.28l13.15-13.15M50.2 63.25l-8.76-8.76" class="K"></path></g><linearGradient id="H" gradientUnits="userSpaceOnUse" x1="19.97" y1="61.059" x2="76.03" y2="61.059"><stop offset="0" stop-color="#002057"></stop><stop offset="1" stop-color="#4a71b4"></stop></linearGradient><circle cx="48" cy="61.06" r="27.16" stroke="url(#H)" class="I J M"></circle><linearGradient id="I" gradientUnits="userSpaceOnUse" x1="25.402" y1="61.059" x2="70.598" y2="61.059"><stop offset="0" stop-color="#002057"></stop><stop offset="1" stop-color="#4a71b4"></stop></linearGradient><circle cx="48" cy="61.06" r="21.73" stroke="url(#I)" class="I J M"></circle></svg> 