<?xml version="1.0" encoding="UTF-8"?> <svg xmlns="http://www.w3.org/2000/svg" xmlns:xlink="http://www.w3.org/1999/xlink" viewBox="0 0 96 96"><style><![CDATA[.I{fill:#f3faff}.J{stroke-width:1.734}.K{stroke-linejoin:round}.L{stroke-miterlimit:10}.M{stroke-linecap:round}]]></style><path d="M50.05 96C26.57 96 7.53 76.97 7.53 53.5s19.03-42.52 42.5-42.52S92.55 30 92.55 53.5C92.56 76.97 73.53 96 50.05 96" fill="#9effd8"></path><path d="M52.8 85.03c-23.48 0-42.5-19.04-42.5-42.5C10.27 19.03 29.3 0 52.8 0s42.5 19.03 42.5 42.52c0 23.47-19.03 42.5-42.5 42.5" fill="#6be4c6"></path><linearGradient id="A" gradientUnits="userSpaceOnUse" x1="14.745" y1="38.722" x2="93.778" y2="38.722"><stop offset="0" stop-color="#002057"></stop><stop offset="1" stop-color="#4a71b4"></stop></linearGradient><use xlink:href="#M" stroke="url(#A)" class="I J K L"></use><use xlink:href="#M" stroke="url(#A)" class="I J K L"></use><linearGradient id="B" gradientUnits="userSpaceOnUse" x1="7.935" y1="44.752" x2="86.968" y2="44.752"><stop offset="0" stop-color="#002057"></stop><stop offset="1" stop-color="#4a71b4"></stop></linearGradient><use xlink:href="#N" stroke="url(#B)" class="I J K L"></use><use xlink:href="#N" stroke="url(#B)" class="I J K L"></use><linearGradient id="C" gradientUnits="userSpaceOnUse" x1=".699" y1="50.32" x2="79.731" y2="50.32"><stop offset="0" stop-color="#002057"></stop><stop offset="1" stop-color="#4a71b4"></stop></linearGradient><path d="M73.18 78.2H7.25c-3.14 0-5.68-2.54-5.68-5.68v-44.4c0-3.14 2.54-5.68 5.68-5.68h65.93c3.14 0 5.68 2.54 5.68 5.68v44.4c0 3.14-2.54 5.68-5.68 5.68z" stroke="url(#C)" class="I J K L"></path><path d="M78.86 53.2v20.16l-.02.5c-.01.16-.04.32-.07.48s-.07.3-.12.46l-.16.44-.2.42c-.07.14-.15.27-.24.4a5.126 5.126 0 0 1-.93 1.02l-.37.28c-.13.1-.26.17-.4.24l-.42.2c-.14.06-.3.1-.44.16s-.3.1-.46.12l-.48.07c-.16.02-.33.02-.5.02H6.37c-.17 0-.33-.01-.5-.02s-.32 0-.48-.04l-.46-.12-.44-.16a7.99 7.99 0 0 1-.42-.2c-.14-.07-.27-.15-.4-.24a5.126 5.126 0 0 1-1.02-.93l-.28-.37c-.1-.13-.17-.26-.24-.4l-.2-.4c-.06-.14-.1-.3-.16-.44s-.1-.3-.12-.46l-.07-.48-.02-.5V27.26l.02-.5.07-.48c.03-.16.07-.3.12-.46l.16-.44.2-.42c.07-.14.15-.27.24-.4a5.126 5.126 0 0 1 .93-1.02l.37-.28c.13-.1.26-.17.4-.24l.42-.2c.14-.06.3-.1.44-.16s.3-.1.46-.12l.48-.07c.16-.02.33-.02.5-.02l68.17.02.48.07c.16.03.3.07.46.12l.44.16.42.2c.14.07.27.15.4.24a5.126 5.126 0 0 1 1.02.93l.28.37c.1.13.17.26.24.4l.2.42c.06.14.1.3.16.44s.1.3.12.46l.07.48c.02.16.02.33.02.5v5.76" stroke="url(#C)" class="I J K L M"></path><linearGradient id="D" gradientUnits="userSpaceOnUse" x1="77.998" y1="43.109" x2="79.731" y2="43.109"><stop offset="0" stop-color="#002057"></stop><stop offset="1" stop-color="#4a71b4"></stop></linearGradient><path stroke="url(#D)" d="M78.86 38.78v8.66" class="I J K L M"></path><linearGradient id="E" gradientUnits="userSpaceOnUse" x1="10.579" y1="41.651" x2="24.081" y2="41.651"><stop offset="0" stop-color="#002057"></stop><stop offset="1" stop-color="#4a71b4"></stop></linearGradient><path opacity=".14" stroke="url(#E)" d="M11.45 36.52h11.77v10.26H11.45z" class="I J K L"></path><path stroke="url(#E)" d="M11.45 36.52h11.77v10.26H11.45z" class="I J K L"></path><linearGradient id="F" gradientUnits="userSpaceOnUse" x1="11.269" y1="58.788" x2="66.894" y2="58.788"><stop offset="0" stop-color="#002057"></stop><stop offset="1" stop-color="#4a71b4"></stop></linearGradient><path stroke="url(#F)" d="M12.14 58.8h53.9" class="I J K L M"></path><linearGradient id="G" gradientUnits="userSpaceOnUse" x1="48.813" y1="39.028" x2="65.906" y2="39.028"><stop offset="0" stop-color="#002057"></stop><stop offset="1" stop-color="#4a71b4"></stop></linearGradient><path stroke="url(#G)" d="M49.68 39.03h15.36" class="I J K L M"></path><linearGradient id="H" gradientUnits="userSpaceOnUse" x1="48.813" y1="44.956" x2="65.906" y2="44.956"><stop offset="0" stop-color="#002057"></stop><stop offset="1" stop-color="#4a71b4"></stop></linearGradient><path stroke="url(#H)" d="M49.68 44.96h15.36" class="I J K L M"></path><linearGradient id="I" gradientUnits="userSpaceOnUse" x1="48.813" y1="51.872" x2="65.906" y2="51.872"><stop offset="0" stop-color="#002057"></stop><stop offset="1" stop-color="#4a71b4"></stop></linearGradient><path stroke="url(#I)" d="M49.68 51.87h15.36" class="I J K L M"></path><linearGradient id="J" gradientUnits="userSpaceOnUse" x1="11.82" y1="67.462" x2="20.722" y2="67.462"><stop offset="0" stop-color="#002057"></stop><stop offset="1" stop-color="#4a71b4"></stop></linearGradient><path stroke="url(#J)" d="M12.7 67.46h7.17" class="I J K L M"></path><linearGradient id="K" gradientUnits="userSpaceOnUse" x1="29.167" y1="67.462" x2="66.721" y2="67.462"><stop offset="0" stop-color="#002057"></stop><stop offset="1" stop-color="#4a71b4"></stop></linearGradient><path stroke="url(#K)" d="M30.03 67.46h35.82" class="I J K L M"></path><defs><path id="M" d="M87.23 66.6H21.3c-3.14 0-5.68-2.54-5.68-5.68v-44.4c0-3.14 2.54-5.68 5.68-5.68h65.93c3.14 0 5.68 2.54 5.68 5.68v44.4c0 3.14-2.54 5.68-5.68 5.68z"></path><path id="N" d="M80.42 72.63H14.5c-3.14 0-5.68-2.54-5.68-5.68v-44.4c0-3.14 2.54-5.68 5.68-5.68h65.93c3.14 0 5.68 2.54 5.68 5.68v44.4c0 3.14-2.54 5.68-5.68 5.68z"></path></defs></svg> 